<svg width="28" height="18" viewBox="0 0 28 18" fill="none" xmlns="http://www.w3.org/2000/svg">
<g filter="url(#filter0_d_0_24)">
<path d="M24 2.17215C23.2642 2.49882 22.4733 2.71882 21.6433 2.81799C22.4908 2.31049 23.1417 1.50632 23.4475 0.547986C22.655 1.01799 21.7767 1.35965 20.8417 1.54382C20.0942 0.746319 19.0267 0.247986 17.8467 0.247986C15.1975 0.247986 13.2508 2.71965 13.8492 5.28549C10.44 5.11465 7.41667 3.48132 5.3925 0.998819C4.3175 2.84299 4.835 5.25549 6.66167 6.47715C5.99 6.45549 5.35667 6.27132 4.80417 5.96382C4.75917 7.86465 6.12167 9.64299 8.095 10.0388C7.5175 10.1955 6.885 10.2322 6.24167 10.1088C6.76333 11.7388 8.27833 12.9247 10.075 12.958C8.35 14.3105 6.17667 14.9147 4 14.658C5.81583 15.8222 7.97333 16.5013 10.29 16.5013C17.9083 16.5013 22.2125 10.0672 21.9525 4.29632C22.7542 3.71715 23.45 2.99465 24 2.17215Z" fill="white"/>
</g>
<defs>
<filter id="filter0_d_0_24" x="0" y="0.247986" width="28" height="24.2534" filterUnits="userSpaceOnUse" color-interpolation-filters="sRGB">
<feFlood flood-opacity="0" result="BackgroundImageFix"/>
<feColorMatrix in="SourceAlpha" type="matrix" values="0 0 0 0 0 0 0 0 0 0 0 0 0 0 0 0 0 0 127 0" result="hardAlpha"/>
<feOffset dy="4"/>
<feGaussianBlur stdDeviation="2"/>
<feComposite in2="hardAlpha" operator="out"/>
<feColorMatrix type="matrix" values="0 0 0 0 0 0 0 0 0 0 0 0 0 0 0 0 0 0 0.25 0"/>
<feBlend mode="normal" in2="BackgroundImageFix" result="effect1_dropShadow_0_24"/>
<feBlend mode="normal" in="SourceGraphic" in2="effect1_dropShadow_0_24" result="shape"/>
</filter>
</defs>
</svg>
